<svg xmlns="http://www.w3.org/2000/svg" viewBox="0 0 420 150" width="420" height="150" role="img" aria-label="make-npx-card: mint your own npx &lt;you&gt; card. 387 downloads. install with npx make-npx-card"><title>make-npx-card: mint your own npx &lt;you&gt; card. 387 downloads. install with npx make-npx-card</title><style>.draw{stroke-dasharray:1;stroke-dashoffset:1;animation:draw 2s .3s ease-out forwards}@keyframes draw{to{stroke-dashoffset:0}}.fade{opacity:0;animation:fade .6s 2.1s forwards}@keyframes fade{to{opacity:1}}@media (prefers-reduced-motion:reduce){.draw{stroke-dashoffset:0}.fade{opacity:1}}@media (prefers-reduced-motion:reduce){*{animation:none!important}.l,.c{opacity:1!important}}</style><rect x=".5" y=".5" width="419" height="149" rx="12" fill="#0f141b"/><line x1="24" x2="396" y1="1" y2="1" stroke="#ffffff" stroke-opacity=".06"/><rect x=".5" y=".5" width="419" height="149" rx="12" fill="none" stroke="#21262d"/><text x="22.0" y="42.0" font-family='ui-monospace,SFMono-Regular,"JetBrains Mono",Menlo,Consolas,monospace' font-size="21" font-weight="700" fill="#e6edf3" text-anchor="start" font-style="normal">make-npx-card</text><text x="22.0" y="63.0" font-family='ui-monospace,SFMono-Regular,"JetBrains Mono",Menlo,Consolas,monospace' font-size="12" font-weight="400" fill="#8b949e" text-anchor="start">mint your own npx &lt;you&gt; card</text><text x="398.0" y="42.0" font-family='ui-monospace,SFMono-Regular,"JetBrains Mono",Menlo,Consolas,monospace' font-size="24" font-weight="600" fill="#f0bd4f" text-anchor="end">387</text><text x="398.0" y="62.0" font-family='ui-monospace,SFMono-Regular,"JetBrains Mono",Menlo,Consolas,monospace' font-size="11" font-weight="400" fill="#8b949e" text-anchor="end">downloads</text><path class="draw" d="M22.0,112.0 L26.2,112.0 L30.4,112.0 L34.7,112.0 L38.9,112.0 L43.1,112.0 L47.3,112.0 L51.6,112.0 L55.8,112.0 L60.0,112.0 L64.2,112.0 L68.5,112.0 L72.7,112.0 L76.9,112.0 L81.1,112.0 L85.4,112.0 L89.6,112.0 L93.8,88.7 L98.0,85.4 L102.3,84.1 L106.5,82.6 L110.7,82.5 L114.9,82.2 L119.2,82.0 L123.4,104.8 L127.6,107.6 L131.8,108.9 L136.1,110.3 L140.3,110.3 L144.5,110.0 L148.7,109.9 L153.0,110.3 L157.2,110.8 L161.4,110.8 L165.6,110.9 L169.9,110.3 L174.1,110.4 L178.3,110.4 L182.5,110.4 L186.8,110.2 L191.0,110.0 L195.2,109.9 L199.4,110.4 L203.7,110.7 L207.9,110.7 L212.1,110.6 L216.3,110.6 L220.6,110.6 L224.8,110.5 L229.0,110.6 L233.2,110.8 L237.5,110.9 L241.7,111.1 L245.9,111.2 L250.1,111.4 L254.4,111.5 L258.6,111.6 L262.8,111.6 L267.0,111.8 L271.3,111.6 L275.5,111.7 L279.7,111.7 L283.9,111.6 L288.2,111.4 L292.4,111.4 L296.6,111.3 L300.8,111.1 L305.1,111.1 L309.3,111.1 L313.5,111.2 L317.7,111.4 L322.0,111.4 L326.2,111.5 L330.4,111.9 L334.6,111.7 L338.9,111.7 L343.1,111.6 L347.3,111.6 L351.5,111.5 L355.8,111.5 L360.0,111.5 L364.2,111.6 L368.4,111.5 L372.7,111.5 L376.9,111.5 L381.1,111.6 L385.3,111.6 L389.6,111.6 L393.8,111.7 L398.0,111.8" pathLength="1" fill="none" stroke="#f0bd4f" stroke-width="1.4" stroke-linejoin="round" stroke-linecap="round" opacity=".9"/><circle class="fade" cx="398.0" cy="111.8" r="2.6" fill="#f0bd4f"/><text x="22.0" y="134.0" font-family='ui-monospace,SFMono-Regular,"JetBrains Mono",Menlo,Consolas,monospace' font-size="12" font-weight="400" fill="#79c0ff" text-anchor="start" xml:space="preserve">$ npx make-npx-card</text><text x="398.0" y="134.0" font-family='ui-monospace,SFMono-Regular,"JetBrains Mono",Menlo,Consolas,monospace' font-size="11" font-weight="400" fill="#8b949e" text-anchor="end">npm · v1.0.1</text></svg>