<svg xmlns="http://www.w3.org/2000/svg" viewBox="0 0 420 150" width="420" height="150" role="img" aria-label="kbrgb: rgb for acer predator/nitro keyboards. 709 downloads. install with yay -S kbrgb"><title>kbrgb: rgb for acer predator/nitro keyboards. 709 downloads. install with yay -S kbrgb</title><style>.draw{stroke-dasharray:1;stroke-dashoffset:1;animation:draw 2s .3s ease-out forwards}@keyframes draw{to{stroke-dashoffset:0}}.fade{opacity:0;animation:fade .6s 2.1s forwards}@keyframes fade{to{opacity:1}}@media (prefers-reduced-motion:reduce){.draw{stroke-dashoffset:0}.fade{opacity:1}}@media (prefers-reduced-motion:reduce){*{animation:none!important}.l,.c{opacity:1!important}}</style><rect x=".5" y=".5" width="419" height="149" rx="12" fill="#0f141b"/><line x1="24" x2="396" y1="1" y2="1" stroke="#ffffff" stroke-opacity=".06"/><rect x=".5" y=".5" width="419" height="149" rx="12" fill="none" stroke="#21262d"/><text x="22.0" y="42.0" font-family='ui-monospace,SFMono-Regular,"JetBrains Mono",Menlo,Consolas,monospace' font-size="21" font-weight="700" fill="#e6edf3" text-anchor="start" font-style="normal">kbrgb</text><text x="22.0" y="63.0" font-family='ui-monospace,SFMono-Regular,"JetBrains Mono",Menlo,Consolas,monospace' font-size="12" font-weight="400" fill="#8b949e" text-anchor="start">rgb for acer predator/nitro keyboards</text><text x="398.0" y="42.0" font-family='ui-monospace,SFMono-Regular,"JetBrains Mono",Menlo,Consolas,monospace' font-size="24" font-weight="600" fill="#58cdbb" text-anchor="end">709</text><text x="398.0" y="62.0" font-family='ui-monospace,SFMono-Regular,"JetBrains Mono",Menlo,Consolas,monospace' font-size="11" font-weight="400" fill="#8b949e" text-anchor="end">downloads</text><path class="draw" d="M22.0,82.0 L29.8,95.8 L37.7,100.6 L45.5,103.3 L53.3,105.0 L61.2,105.7 L69.0,106.4 L76.8,110.5 L84.7,110.7 L92.5,110.8 L100.3,110.7 L108.2,110.7 L116.0,111.0 L123.8,111.1 L131.7,111.3 L139.5,111.3 L147.3,111.4 L155.2,111.5 L163.0,111.4 L170.8,111.4 L178.7,111.5 L186.5,111.5 L194.3,111.5 L202.2,111.5 L210.0,111.6 L217.8,111.6 L225.7,111.6 L233.5,111.6 L241.3,111.5 L249.2,111.4 L257.0,111.5 L264.8,111.4 L272.7,111.5 L280.5,111.4 L288.3,111.4 L296.2,111.5 L304.0,111.6 L311.8,111.5 L319.7,111.5 L327.5,111.5 L335.3,111.5 L343.2,111.4 L351.0,111.4 L358.8,111.3 L366.7,111.5 L374.5,111.5 L382.3,111.4 L390.2,111.4 L398.0,111.5" pathLength="1" fill="none" stroke="#58cdbb" stroke-width="1.4" stroke-linejoin="round" stroke-linecap="round" opacity=".9"/><circle class="fade" cx="398.0" cy="111.5" r="2.6" fill="#58cdbb"/><text x="22.0" y="134.0" font-family='ui-monospace,SFMono-Regular,"JetBrains Mono",Menlo,Consolas,monospace' font-size="12" font-weight="400" fill="#79c0ff" text-anchor="start" xml:space="preserve">$ yay -S kbrgb</text><text x="398.0" y="134.0" font-family='ui-monospace,SFMono-Regular,"JetBrains Mono",Menlo,Consolas,monospace' font-size="11" font-weight="400" fill="#8b949e" text-anchor="end">pypi · aur · v0.2.1</text></svg>